<svg xmlns="http://www.w3.org/2000/svg" xmlns:xlink="http://www.w3.org/1999/xlink" viewBox="0 0 32 24"><defs><style>.cls-1,.cls-10,.cls-2,.cls-3{fill:none;}.cls-1{clip-rule:evenodd;}.cls-3{fill-rule:evenodd;}.cls-4{clip-path:url(#clip-path);}.cls-5{clip-path:url(#clip-path-2);}.cls-6{isolation:isolate;}.cls-7{clip-path:url(#clip-path-3);}.cls-8{clip-path:url(#clip-path-5);}.cls-9{fill:#fff;}.cls-10{stroke:#fff;stroke-miterlimit:10;stroke-width:4px;}.cls-11{clip-path:url(#clip-path-7);}.cls-12{clip-path:url(#clip-path-9);}.cls-13{clip-path:url(#clip-path-11);}.cls-14{clip-path:url(#clip-path-13);}.cls-15{clip-path:url(#clip-path-15);}.cls-16{clip-path:url(#clip-path-17);}</style><clipPath id="clip-path" transform="translate(-19 -40)"><path class="cls-1" d="M22,42H48a1,1,0,0,1,0,2H22a1,1,0,0,1,0-2Z"/></clipPath><clipPath id="clip-path-2" transform="translate(-19 -40)"><rect class="cls-2" width="360" height="3109"/></clipPath><clipPath id="clip-path-3" transform="translate(-19 -40)"><rect class="cls-2" x="1" y="22" width="68" height="42"/></clipPath><clipPath id="clip-path-5" transform="translate(-19 -40)"><rect class="cls-2" x="21" y="42" width="28" height="2"/></clipPath><clipPath id="clip-path-7" transform="translate(-19 -40)"><path class="cls-1" d="M22,51H48a1,1,0,0,1,0,2H22a1,1,0,0,1,0-2Z"/></clipPath><clipPath id="clip-path-9" transform="translate(-19 -40)"><rect class="cls-2" x="1" y="31" width="68" height="42"/></clipPath><clipPath id="clip-path-11" transform="translate(-19 -40)"><rect class="cls-2" x="21" y="51" width="28" height="2"/></clipPath><clipPath id="clip-path-13" transform="translate(-19 -40)"><path class="cls-1" d="M22,60H48a1,1,0,0,1,0,2H22a1,1,0,0,1,0-2Z"/></clipPath><clipPath id="clip-path-15" transform="translate(-19 -40)"><rect class="cls-2" x="1" y="40" width="68" height="42"/></clipPath><clipPath id="clip-path-17" transform="translate(-19 -40)"><rect class="cls-2" x="21" y="60" width="28" height="2"/></clipPath></defs><title>Asset 3</title><g id="Layer_2" data-name="Layer 2"><g id="Layer_1-2" data-name="Layer 1"><g class="cls-4"><g class="cls-5"><g class="cls-6"><g class="cls-7"><g class="cls-4"><g class="cls-8"><path class="cls-9" d="M22,42H48a1,1,0,0,1,0,2H22a1,1,0,0,1,0-2Z" transform="translate(-19 -40)"/></g></g><g class="cls-8"><path class="cls-10" d="M22,42H48a1,1,0,0,1,0,2H22a1,1,0,0,1,0-2Z" transform="translate(-19 -40)"/></g></g></g></g></g><g class="cls-11"><g class="cls-5"><g class="cls-6"><g class="cls-12"><g class="cls-11"><g class="cls-13"><path class="cls-9" d="M22,51H48a1,1,0,0,1,0,2H22a1,1,0,0,1,0-2Z" transform="translate(-19 -40)"/></g></g><g class="cls-13"><path class="cls-10" d="M22,51H48a1,1,0,0,1,0,2H22a1,1,0,0,1,0-2Z" transform="translate(-19 -40)"/></g></g></g></g></g><g class="cls-14"><g class="cls-5"><g class="cls-6"><g class="cls-15"><g class="cls-14"><g class="cls-16"><path class="cls-9" d="M22,60H48a1,1,0,0,1,0,2H22a1,1,0,0,1,0-2Z" transform="translate(-19 -40)"/></g></g><g class="cls-16"><path class="cls-10" d="M22,60H48a1,1,0,0,1,0,2H22a1,1,0,0,1,0-2Z" transform="translate(-19 -40)"/></g></g></g></g></g></g></g></svg>